<mxfile host="app.diagrams.net" modified="2023-01-31T05:49:01.933Z" agent="5.0 (Macintosh; Intel Mac OS X 10_15_7) AppleWebKit/605.1.15 (KHTML, like Gecko) Version/15.6 Safari/605.1.15" etag="452si3fqb_tpV6gR9_YW" version="20.8.13" type="github">
  <diagram name="Page-1" id="ZdmYNuxro8OlXTehI8BG">
    <mxGraphModel dx="984" dy="609" grid="1" gridSize="10" guides="1" tooltips="1" connect="1" arrows="1" fold="1" page="1" pageScale="1" pageWidth="827" pageHeight="1169" math="0" shadow="0">
      <root>
        <mxCell id="0" />
        <mxCell id="1" parent="0" />
        <mxCell id="ZzHnAP_2glh7cRFsfgG9-3" value="" style="edgeStyle=orthogonalEdgeStyle;rounded=0;orthogonalLoop=1;jettySize=auto;html=1;" edge="1" parent="1" source="ZzHnAP_2glh7cRFsfgG9-1" target="ZzHnAP_2glh7cRFsfgG9-2">
          <mxGeometry relative="1" as="geometry" />
        </mxCell>
        <mxCell id="ZzHnAP_2glh7cRFsfgG9-5" value="" style="edgeStyle=orthogonalEdgeStyle;rounded=0;orthogonalLoop=1;jettySize=auto;html=1;" edge="1" parent="1" source="ZzHnAP_2glh7cRFsfgG9-1" target="ZzHnAP_2glh7cRFsfgG9-4">
          <mxGeometry relative="1" as="geometry" />
        </mxCell>
        <mxCell id="ZzHnAP_2glh7cRFsfgG9-1" value="提出课题" style="rounded=0;whiteSpace=wrap;html=1;" vertex="1" parent="1">
          <mxGeometry x="220" y="70" width="120" height="60" as="geometry" />
        </mxCell>
        <mxCell id="ZzHnAP_2glh7cRFsfgG9-2" value="绪论" style="rounded=0;whiteSpace=wrap;html=1;" vertex="1" parent="1">
          <mxGeometry x="420" y="70" width="120" height="60" as="geometry" />
        </mxCell>
        <mxCell id="ZzHnAP_2glh7cRFsfgG9-7" value="" style="edgeStyle=orthogonalEdgeStyle;rounded=0;orthogonalLoop=1;jettySize=auto;html=1;" edge="1" parent="1" source="ZzHnAP_2glh7cRFsfgG9-4" target="ZzHnAP_2glh7cRFsfgG9-6">
          <mxGeometry relative="1" as="geometry" />
        </mxCell>
        <mxCell id="ZzHnAP_2glh7cRFsfgG9-13" value="" style="edgeStyle=orthogonalEdgeStyle;rounded=0;orthogonalLoop=1;jettySize=auto;html=1;" edge="1" parent="1" source="ZzHnAP_2glh7cRFsfgG9-4" target="ZzHnAP_2glh7cRFsfgG9-12">
          <mxGeometry relative="1" as="geometry" />
        </mxCell>
        <mxCell id="ZzHnAP_2glh7cRFsfgG9-16" value="" style="edgeStyle=orthogonalEdgeStyle;rounded=0;orthogonalLoop=1;jettySize=auto;html=1;" edge="1" parent="1" source="ZzHnAP_2glh7cRFsfgG9-4" target="ZzHnAP_2glh7cRFsfgG9-12">
          <mxGeometry relative="1" as="geometry" />
        </mxCell>
        <mxCell id="ZzHnAP_2glh7cRFsfgG9-17" value="" style="edgeStyle=orthogonalEdgeStyle;rounded=0;orthogonalLoop=1;jettySize=auto;html=1;" edge="1" parent="1" source="ZzHnAP_2glh7cRFsfgG9-4" target="ZzHnAP_2glh7cRFsfgG9-12">
          <mxGeometry relative="1" as="geometry" />
        </mxCell>
        <mxCell id="ZzHnAP_2glh7cRFsfgG9-18" value="" style="edgeStyle=orthogonalEdgeStyle;rounded=0;orthogonalLoop=1;jettySize=auto;html=1;" edge="1" parent="1" source="ZzHnAP_2glh7cRFsfgG9-4" target="ZzHnAP_2glh7cRFsfgG9-12">
          <mxGeometry relative="1" as="geometry" />
        </mxCell>
        <mxCell id="ZzHnAP_2glh7cRFsfgG9-20" style="edgeStyle=orthogonalEdgeStyle;rounded=0;orthogonalLoop=1;jettySize=auto;html=1;" edge="1" parent="1" source="ZzHnAP_2glh7cRFsfgG9-4" target="ZzHnAP_2glh7cRFsfgG9-19">
          <mxGeometry relative="1" as="geometry" />
        </mxCell>
        <mxCell id="ZzHnAP_2glh7cRFsfgG9-4" value="研究现况" style="rounded=0;whiteSpace=wrap;html=1;" vertex="1" parent="1">
          <mxGeometry x="220" y="210" width="120" height="60" as="geometry" />
        </mxCell>
        <mxCell id="ZzHnAP_2glh7cRFsfgG9-9" value="" style="edgeStyle=orthogonalEdgeStyle;rounded=0;orthogonalLoop=1;jettySize=auto;html=1;" edge="1" parent="1" source="ZzHnAP_2glh7cRFsfgG9-6" target="ZzHnAP_2glh7cRFsfgG9-8">
          <mxGeometry relative="1" as="geometry" />
        </mxCell>
        <mxCell id="ZzHnAP_2glh7cRFsfgG9-15" value="" style="edgeStyle=orthogonalEdgeStyle;rounded=0;orthogonalLoop=1;jettySize=auto;html=1;" edge="1" parent="1" source="ZzHnAP_2glh7cRFsfgG9-6" target="ZzHnAP_2glh7cRFsfgG9-14">
          <mxGeometry relative="1" as="geometry" />
        </mxCell>
        <mxCell id="ZzHnAP_2glh7cRFsfgG9-6" value="理论基础" style="rounded=0;whiteSpace=wrap;html=1;" vertex="1" parent="1">
          <mxGeometry x="220" y="350" width="120" height="60" as="geometry" />
        </mxCell>
        <mxCell id="ZzHnAP_2glh7cRFsfgG9-11" value="" style="edgeStyle=orthogonalEdgeStyle;rounded=0;orthogonalLoop=1;jettySize=auto;html=1;" edge="1" parent="1" source="ZzHnAP_2glh7cRFsfgG9-8" target="ZzHnAP_2glh7cRFsfgG9-10">
          <mxGeometry relative="1" as="geometry" />
        </mxCell>
        <mxCell id="ZzHnAP_2glh7cRFsfgG9-24" value="" style="edgeStyle=orthogonalEdgeStyle;rounded=0;orthogonalLoop=1;jettySize=auto;html=1;" edge="1" parent="1" source="ZzHnAP_2glh7cRFsfgG9-8" target="ZzHnAP_2glh7cRFsfgG9-23">
          <mxGeometry relative="1" as="geometry" />
        </mxCell>
        <mxCell id="ZzHnAP_2glh7cRFsfgG9-25" value="" style="edgeStyle=orthogonalEdgeStyle;rounded=0;orthogonalLoop=1;jettySize=auto;html=1;" edge="1" parent="1" source="ZzHnAP_2glh7cRFsfgG9-8" target="ZzHnAP_2glh7cRFsfgG9-23">
          <mxGeometry relative="1" as="geometry" />
        </mxCell>
        <mxCell id="ZzHnAP_2glh7cRFsfgG9-28" style="edgeStyle=orthogonalEdgeStyle;rounded=0;orthogonalLoop=1;jettySize=auto;html=1;" edge="1" parent="1" source="ZzHnAP_2glh7cRFsfgG9-8" target="ZzHnAP_2glh7cRFsfgG9-27">
          <mxGeometry relative="1" as="geometry" />
        </mxCell>
        <mxCell id="ZzHnAP_2glh7cRFsfgG9-8" value="研究分析" style="rounded=0;whiteSpace=wrap;html=1;" vertex="1" parent="1">
          <mxGeometry x="220" y="490" width="120" height="60" as="geometry" />
        </mxCell>
        <mxCell id="ZzHnAP_2glh7cRFsfgG9-22" value="" style="edgeStyle=orthogonalEdgeStyle;rounded=0;orthogonalLoop=1;jettySize=auto;html=1;" edge="1" parent="1" source="ZzHnAP_2glh7cRFsfgG9-10" target="ZzHnAP_2glh7cRFsfgG9-21">
          <mxGeometry relative="1" as="geometry" />
        </mxCell>
        <mxCell id="ZzHnAP_2glh7cRFsfgG9-10" value="总结" style="rounded=0;whiteSpace=wrap;html=1;" vertex="1" parent="1">
          <mxGeometry x="220" y="630" width="120" height="60" as="geometry" />
        </mxCell>
        <mxCell id="ZzHnAP_2glh7cRFsfgG9-12" value="企业的变动" style="rounded=0;whiteSpace=wrap;html=1;" vertex="1" parent="1">
          <mxGeometry x="420" y="160" width="120" height="60" as="geometry" />
        </mxCell>
        <mxCell id="ZzHnAP_2glh7cRFsfgG9-14" value="数字化数据变动" style="rounded=0;whiteSpace=wrap;html=1;" vertex="1" parent="1">
          <mxGeometry x="420" y="350" width="120" height="60" as="geometry" />
        </mxCell>
        <mxCell id="ZzHnAP_2glh7cRFsfgG9-19" value="疫情" style="rounded=0;whiteSpace=wrap;html=1;" vertex="1" parent="1">
          <mxGeometry x="420" y="260" width="120" height="60" as="geometry" />
        </mxCell>
        <mxCell id="ZzHnAP_2glh7cRFsfgG9-21" value="研究结论以及预测方向" style="rounded=0;whiteSpace=wrap;html=1;" vertex="1" parent="1">
          <mxGeometry x="420" y="630" width="120" height="60" as="geometry" />
        </mxCell>
        <mxCell id="ZzHnAP_2glh7cRFsfgG9-23" value="企业数字化的建议" style="rounded=0;whiteSpace=wrap;html=1;" vertex="1" parent="1">
          <mxGeometry x="420" y="440" width="120" height="60" as="geometry" />
        </mxCell>
        <mxCell id="ZzHnAP_2glh7cRFsfgG9-27" value="研究分析" style="rounded=0;whiteSpace=wrap;html=1;" vertex="1" parent="1">
          <mxGeometry x="420" y="525" width="120" height="60" as="geometry" />
        </mxCell>
      </root>
    </mxGraphModel>
  </diagram>
</mxfile>
